<svg width="130" height="27" viewBox="0 0 130 27" fill="none" xmlns="http://www.w3.org/2000/svg">
<path d="M25.2917 18.192C24.3957 18.192 23.537 18.0747 22.7157 17.84C21.8944 17.5947 21.233 17.28 20.7317 16.896L21.6117 14.944C22.0917 15.2853 22.657 15.568 23.3077 15.792C23.969 16.0053 24.6357 16.112 25.3077 16.112C25.8197 16.112 26.2304 16.064 26.5397 15.968C26.8597 15.8613 27.0944 15.7173 27.2437 15.536C27.393 15.3547 27.4677 15.1467 27.4677 14.912C27.4677 14.6133 27.3504 14.3787 27.1157 14.208C26.881 14.0267 26.5717 13.8827 26.1877 13.776C25.8037 13.6587 25.377 13.552 24.9077 13.456C24.449 13.3493 23.985 13.2213 23.5157 13.072C23.057 12.9227 22.6357 12.7307 22.2517 12.496C21.8677 12.2613 21.553 11.952 21.3077 11.568C21.073 11.184 20.9557 10.6933 20.9557 10.096C20.9557 9.456 21.1264 8.87467 21.4677 8.352C21.8197 7.81867 22.3424 7.39733 23.0357 7.088C23.7397 6.768 24.6197 6.608 25.6757 6.608C26.3797 6.608 27.073 6.69333 27.7557 6.864C28.4384 7.024 29.041 7.26933 29.5637 7.6L28.7637 9.568C28.241 9.26933 27.7184 9.05067 27.1957 8.912C26.673 8.76267 26.161 8.688 25.6597 8.688C25.1584 8.688 24.7477 8.74667 24.4277 8.864C24.1077 8.98133 23.8784 9.136 23.7397 9.328C23.601 9.50933 23.5317 9.72267 23.5317 9.968C23.5317 10.256 23.649 10.4907 23.8837 10.672C24.1184 10.8427 24.4277 10.9813 24.8117 11.088C25.1957 11.1947 25.617 11.3013 26.0757 11.408C26.545 11.5147 27.009 11.6373 27.4677 11.776C27.937 11.9147 28.3637 12.1013 28.7477 12.336C29.1317 12.5707 29.441 12.88 29.6757 13.264C29.921 13.648 30.0437 14.1333 30.0437 14.72C30.0437 15.3493 29.8677 15.9253 29.5157 16.448C29.1637 16.9707 28.6357 17.392 27.9317 17.712C27.2384 18.032 26.3584 18.192 25.2917 18.192ZM32.5706 21.232C32.1226 21.232 31.6799 21.1627 31.2426 21.024C30.8052 20.8853 30.4479 20.6933 30.1706 20.448L31.0826 18.672C31.2746 18.8427 31.4932 18.976 31.7386 19.072C31.9946 19.168 32.2452 19.216 32.4906 19.216C32.8426 19.216 33.1199 19.1307 33.3226 18.96C33.5359 18.8 33.7279 18.528 33.8986 18.144L34.3466 17.088L34.5386 16.816L37.6266 9.392H40.0266L36.1386 18.528C35.8612 19.2213 35.5412 19.7653 35.1786 20.16C34.8266 20.5547 34.4319 20.832 33.9946 20.992C33.5679 21.152 33.0932 21.232 32.5706 21.232ZM34.0426 18.336L30.2026 9.392H32.7786L35.7546 16.592L34.0426 18.336ZM52.0691 9.264C52.7517 9.264 53.3544 9.40267 53.8771 9.68C54.4104 9.94667 54.8264 10.3627 55.1251 10.928C55.4344 11.4827 55.5891 12.1973 55.5891 13.072V18H53.0931V13.456C53.0931 12.7627 52.9491 12.2507 52.6611 11.92C52.3731 11.5893 51.9677 11.424 51.4451 11.424C51.0824 11.424 50.7571 11.5093 50.4691 11.68C50.1811 11.84 49.9571 12.0853 49.7971 12.416C49.6371 12.7467 49.5571 13.168 49.5571 13.68V18H47.0611V13.456C47.0611 12.7627 46.9171 12.2507 46.6291 11.92C46.3517 11.5893 45.9517 11.424 45.4291 11.424C45.0664 11.424 44.7411 11.5093 44.4531 11.68C44.1651 11.84 43.9411 12.0853 43.7811 12.416C43.6211 12.7467 43.5411 13.168 43.5411 13.68V18H41.0451V9.392H43.4291V11.744L42.9811 11.056C43.2797 10.4693 43.7011 10.0267 44.2451 9.728C44.7997 9.41867 45.4291 9.264 46.1331 9.264C46.9224 9.264 47.6104 9.46667 48.1971 9.872C48.7944 10.2667 49.1891 10.8747 49.3811 11.696L48.5011 11.456C48.7891 10.784 49.2477 10.2507 49.8771 9.856C50.5171 9.46133 51.2477 9.264 52.0691 9.264ZM62.9143 18.128C62.189 18.128 61.5543 17.968 61.0103 17.648C60.4663 17.328 60.0396 16.8427 59.7303 16.192C59.4316 15.5307 59.2823 14.6987 59.2823 13.696C59.2823 12.6827 59.4263 11.8507 59.7143 11.2C60.0023 10.5493 60.4183 10.064 60.9623 9.744C61.5063 9.424 62.157 9.264 62.9143 9.264C63.725 9.264 64.4503 9.45067 65.0903 9.824C65.741 10.1867 66.253 10.6987 66.6263 11.36C67.0103 12.0213 67.2023 12.8 67.2023 13.696C67.2023 14.6027 67.0103 15.3867 66.6263 16.048C66.253 16.7093 65.741 17.2213 65.0903 17.584C64.4503 17.9467 63.725 18.128 62.9143 18.128ZM57.8263 21.104V9.392H60.2103V11.152L60.1623 13.712L60.3223 16.256V21.104H57.8263ZM62.4823 16.08C62.8983 16.08 63.2663 15.984 63.5863 15.792C63.917 15.6 64.1783 15.328 64.3703 14.976C64.573 14.6133 64.6743 14.1867 64.6743 13.696C64.6743 13.1947 64.573 12.768 64.3703 12.416C64.1783 12.064 63.917 11.792 63.5863 11.6C63.2663 11.408 62.8983 11.312 62.4823 11.312C62.0663 11.312 61.693 11.408 61.3623 11.6C61.0317 11.792 60.7703 12.064 60.5783 12.416C60.3863 12.768 60.2903 13.1947 60.2903 13.696C60.2903 14.1867 60.3863 14.6133 60.5783 14.976C60.7703 15.328 61.0317 15.6 61.3623 15.792C61.693 15.984 62.0663 16.08 62.4823 16.08ZM72.3932 18.128C71.3799 18.128 70.5905 17.872 70.0252 17.36C69.4599 16.8373 69.1772 16.064 69.1772 15.04V7.488H71.6732V15.008C71.6732 15.3707 71.7692 15.6533 71.9612 15.856C72.1532 16.048 72.4145 16.144 72.7452 16.144C73.1399 16.144 73.4759 16.0373 73.7532 15.824L74.4252 17.584C74.1692 17.7653 73.8599 17.904 73.4972 18C73.1452 18.0853 72.7772 18.128 72.3932 18.128ZM67.8492 11.504V9.584H73.8172V11.504H67.8492ZM79.6567 18.128C78.7394 18.128 77.9234 17.936 77.2087 17.552C76.5047 17.168 75.9447 16.6453 75.5287 15.984C75.1234 15.312 74.9207 14.5493 74.9207 13.696C74.9207 12.832 75.1234 12.0693 75.5287 11.408C75.9447 10.736 76.5047 10.2133 77.2087 9.84C77.9234 9.456 78.7394 9.264 79.6567 9.264C80.5634 9.264 81.374 9.456 82.0887 9.84C82.8034 10.2133 83.3634 10.7307 83.7687 11.392C84.174 12.0533 84.3767 12.8213 84.3767 13.696C84.3767 14.5493 84.174 15.312 83.7687 15.984C83.3634 16.6453 82.8034 17.168 82.0887 17.552C81.374 17.936 80.5634 18.128 79.6567 18.128ZM79.6567 16.08C80.0727 16.08 80.446 15.984 80.7767 15.792C81.1074 15.6 81.3687 15.328 81.5607 14.976C81.7527 14.6133 81.8487 14.1867 81.8487 13.696C81.8487 13.1947 81.7527 12.768 81.5607 12.416C81.3687 12.064 81.1074 11.792 80.7767 11.6C80.446 11.408 80.0727 11.312 79.6567 11.312C79.2407 11.312 78.8674 11.408 78.5367 11.6C78.206 11.792 77.9394 12.064 77.7367 12.416C77.5447 12.768 77.4487 13.1947 77.4487 13.696C77.4487 14.1867 77.5447 14.6133 77.7367 14.976C77.9394 15.328 78.206 15.6 78.5367 15.792C78.8674 15.984 79.2407 16.08 79.6567 16.08ZM97.0691 9.264C97.7517 9.264 98.3544 9.40267 98.8771 9.68C99.4104 9.94667 99.8264 10.3627 100.125 10.928C100.434 11.4827 100.589 12.1973 100.589 13.072V18H98.0931V13.456C98.0931 12.7627 97.9491 12.2507 97.6611 11.92C97.3731 11.5893 96.9677 11.424 96.4451 11.424C96.0824 11.424 95.7571 11.5093 95.4691 11.68C95.1811 11.84 94.9571 12.0853 94.7971 12.416C94.6371 12.7467 94.5571 13.168 94.5571 13.68V18H92.0611V13.456C92.0611 12.7627 91.9171 12.2507 91.6291 11.92C91.3517 11.5893 90.9517 11.424 90.4291 11.424C90.0664 11.424 89.7411 11.5093 89.4531 11.68C89.1651 11.84 88.9411 12.0853 88.7811 12.416C88.6211 12.7467 88.5411 13.168 88.5411 13.68V18H86.0451V9.392H88.4291V11.744L87.9811 11.056C88.2797 10.4693 88.7011 10.0267 89.2451 9.728C89.7997 9.41867 90.4291 9.264 91.1331 9.264C91.9224 9.264 92.6104 9.46667 93.1971 9.872C93.7944 10.2667 94.1891 10.8747 94.3811 11.696L93.5011 11.456C93.7891 10.784 94.2477 10.2507 94.8771 9.856C95.5171 9.46133 96.2477 9.264 97.0691 9.264ZM102.826 18V9.392H105.322V18H102.826ZM104.074 8.192C103.616 8.192 103.242 8.05867 102.954 7.792C102.666 7.52533 102.522 7.19467 102.522 6.8C102.522 6.40533 102.666 6.07467 102.954 5.808C103.242 5.54133 103.616 5.408 104.074 5.408C104.533 5.408 104.906 5.536 105.194 5.792C105.482 6.03733 105.626 6.35733 105.626 6.752C105.626 7.168 105.482 7.51467 105.194 7.792C104.917 8.05867 104.544 8.192 104.074 8.192ZM107.943 18V9.2C107.943 8.22933 108.231 7.456 108.807 6.88C109.383 6.29333 110.204 6 111.271 6C111.633 6 111.98 6.03733 112.311 6.112C112.652 6.18667 112.94 6.304 113.175 6.464L112.519 8.272C112.38 8.176 112.225 8.10133 112.055 8.048C111.884 7.99467 111.703 7.968 111.511 7.968C111.148 7.968 110.865 8.07467 110.663 8.288C110.471 8.49067 110.375 8.8 110.375 9.216V10.016L110.439 11.088V18H107.943ZM106.615 11.504V9.584H112.583V11.504H106.615ZM115.071 21.232C114.623 21.232 114.18 21.1627 113.743 21.024C113.305 20.8853 112.948 20.6933 112.671 20.448L113.583 18.672C113.775 18.8427 113.993 18.976 114.239 19.072C114.495 19.168 114.745 19.216 114.991 19.216C115.343 19.216 115.62 19.1307 115.823 18.96C116.036 18.8 116.228 18.528 116.399 18.144L116.847 17.088L117.039 16.816L120.127 9.392H122.527L118.639 18.528C118.361 19.2213 118.041 19.7653 117.679 20.16C117.327 20.5547 116.932 20.832 116.495 20.992C116.068 21.152 115.593 21.232 115.071 21.232ZM116.543 18.336L112.703 9.392H115.279L118.255 16.592L116.543 18.336Z" fill="#616563"/>
<path d="M5.30786 9.33671C5.36697 9.26308 5.43788 9.20383 5.51653 9.16234C5.59517 9.12084 5.68002 9.09792 5.76622 9.09488C5.85243 9.09185 5.93829 9.10875 6.01892 9.14463C6.09956 9.18051 6.17337 9.23466 6.23615 9.30399C9.2578 12.6416 12.2897 14.6722 15.8576 15.7073C16.339 14.1674 16.3817 12.4727 15.9659 10.8193C15.4144 8.62551 14.1299 6.7142 12.2524 5.29227C10.5764 4.02288 8.90118 3.6923 7.28057 3.37278C5.23604 2.96954 3.30478 2.58844 1.46174 0.300354C1.25655 0.0472459 0.977079 -0.0542862 0.709919 0.0279981C0.404594 0.124237 0.199812 0.40718 0.10173 0.874901C-0.128084 1.96962 0.0196537 5.03772 0.666008 8.27664C1.70387 13.4803 3.36018 16.1134 4.56712 17.4064C6.12657 19.0756 8.1629 20 10.1865 20C10.5679 20.0007 10.9489 19.9679 11.3261 19.9018C13.0378 19.5977 14.4627 18.5896 15.2658 17.1229C11.5933 16.0027 8.45591 13.8725 5.33453 10.4266C5.27164 10.3572 5.22105 10.2739 5.18566 10.1815C5.15027 10.0891 5.13078 9.9894 5.1283 9.88816C5.12582 9.78691 5.14041 9.68608 5.17122 9.59146C5.20203 9.49683 5.24847 9.41026 5.30786 9.33671ZM17.8689 16.1788C17.1782 16.0542 16.5093 15.8978 15.858 15.7087C15.7241 16.1373 15.5575 16.5509 15.3602 16.9444C15.3303 17.0046 15.2987 17.0642 15.2662 17.1229C16.0584 17.3634 16.8605 17.5561 17.6694 17.7004C17.7555 17.7181 17.8438 17.7155 17.929 17.6927C18.0142 17.67 18.0947 17.6275 18.1657 17.5678C18.2367 17.5081 18.2969 17.4323 18.3426 17.345C18.3883 17.2577 18.4188 17.1606 18.4321 17.0593C18.4454 16.958 18.4413 16.8546 18.4201 16.7552C18.3989 16.6558 18.3609 16.5623 18.3085 16.4803C18.2561 16.3983 18.1903 16.3294 18.1148 16.2776C18.0394 16.2259 17.9559 16.1923 17.8693 16.1788H17.8689Z" fill="#15724B"/>
</svg>
