<svg width="196" height="33" viewBox="0 0 196 33" fill="none" xmlns="http://www.w3.org/2000/svg">
<path d="M38.512 28.288C37.168 28.288 35.88 28.112 34.648 27.76C33.416 27.392 32.424 26.92 31.672 26.344L32.992 23.416C33.712 23.928 34.56 24.352 35.536 24.688C36.528 25.008 37.528 25.168 38.536 25.168C39.304 25.168 39.92 25.096 40.384 24.952C40.864 24.792 41.216 24.576 41.44 24.304C41.664 24.032 41.776 23.72 41.776 23.368C41.776 22.92 41.6 22.568 41.248 22.312C40.896 22.04 40.432 21.824 39.856 21.664C39.28 21.488 38.64 21.328 37.936 21.184C37.248 21.024 36.552 20.832 35.848 20.608C35.16 20.384 34.528 20.096 33.952 19.744C33.376 19.392 32.904 18.928 32.536 18.352C32.184 17.776 32.008 17.04 32.008 16.144C32.008 15.184 32.264 14.312 32.776 13.528C33.304 12.728 34.088 12.096 35.128 11.632C36.184 11.152 37.504 10.912 39.088 10.912C40.144 10.912 41.184 11.04 42.208 11.296C43.232 11.536 44.136 11.904 44.92 12.4L43.72 15.352C42.936 14.904 42.152 14.576 41.368 14.368C40.584 14.144 39.816 14.032 39.064 14.032C38.312 14.032 37.696 14.12 37.216 14.296C36.736 14.472 36.392 14.704 36.184 14.992C35.976 15.264 35.872 15.584 35.872 15.952C35.872 16.384 36.048 16.736 36.4 17.008C36.752 17.264 37.216 17.472 37.792 17.632C38.368 17.792 39 17.952 39.688 18.112C40.392 18.272 41.088 18.456 41.776 18.664C42.48 18.872 43.12 19.152 43.696 19.504C44.272 19.856 44.736 20.32 45.088 20.896C45.456 21.472 45.64 22.2 45.64 23.08C45.64 24.024 45.376 24.888 44.848 25.672C44.32 26.456 43.528 27.088 42.472 27.568C41.432 28.048 40.112 28.288 38.512 28.288ZM49.4303 32.848C48.7583 32.848 48.0943 32.744 47.4383 32.536C46.7823 32.328 46.2463 32.04 45.8303 31.672L47.1983 29.008C47.4863 29.264 47.8143 29.464 48.1823 29.608C48.5663 29.752 48.9423 29.824 49.3103 29.824C49.8383 29.824 50.2543 29.696 50.5583 29.44C50.8783 29.2 51.1663 28.792 51.4223 28.216L52.0943 26.632L52.3823 26.224L57.0143 15.088H60.6143L54.7823 28.792C54.3663 29.832 53.8863 30.648 53.3423 31.24C52.8143 31.832 52.2223 32.248 51.5663 32.488C50.9263 32.728 50.2143 32.848 49.4303 32.848ZM51.6383 28.504L45.8783 15.088H49.7423L54.2063 25.888L51.6383 28.504ZM78.6781 14.896C79.7021 14.896 80.6061 15.104 81.3901 15.52C82.1901 15.92 82.8141 16.544 83.2621 17.392C83.7261 18.224 83.9581 19.296 83.9581 20.608V28H80.2141V21.184C80.2141 20.144 79.9981 19.376 79.5661 18.88C79.1341 18.384 78.5261 18.136 77.7421 18.136C77.1981 18.136 76.7101 18.264 76.2781 18.52C75.8461 18.76 75.5101 19.128 75.2701 19.624C75.0301 20.12 74.9101 20.752 74.9101 21.52V28H71.1661V21.184C71.1661 20.144 70.9501 19.376 70.5181 18.88C70.1021 18.384 69.5021 18.136 68.7181 18.136C68.1741 18.136 67.6861 18.264 67.2541 18.52C66.8221 18.76 66.4861 19.128 66.2461 19.624C66.0061 20.12 65.8861 20.752 65.8861 21.52V28H62.1421V15.088H65.7181V18.616L65.0461 17.584C65.4941 16.704 66.1261 16.04 66.9421 15.592C67.7741 15.128 68.7181 14.896 69.7741 14.896C70.9581 14.896 71.9901 15.2 72.8701 15.808C73.7661 16.4 74.3581 17.312 74.6461 18.544L73.3261 18.184C73.7581 17.176 74.4461 16.376 75.3901 15.784C76.3501 15.192 77.4461 14.896 78.6781 14.896ZM94.9459 28.192C93.8579 28.192 92.9059 27.952 92.0899 27.472C91.2739 26.992 90.6339 26.264 90.1699 25.288C89.7219 24.296 89.4979 23.048 89.4979 21.544C89.4979 20.024 89.7139 18.776 90.1459 17.8C90.5779 16.824 91.2019 16.096 92.0179 15.616C92.8339 15.136 93.8099 14.896 94.9459 14.896C96.1619 14.896 97.2499 15.176 98.2099 15.736C99.1859 16.28 99.9539 17.048 100.514 18.04C101.09 19.032 101.378 20.2 101.378 21.544C101.378 22.904 101.09 24.08 100.514 25.072C99.9539 26.064 99.1859 26.832 98.2099 27.376C97.2499 27.92 96.1619 28.192 94.9459 28.192ZM87.3139 32.656V15.088H90.8899V17.728L90.8179 21.568L91.0579 25.384V32.656H87.3139ZM94.2979 25.12C94.9219 25.12 95.4739 24.976 95.9539 24.688C96.4499 24.4 96.8419 23.992 97.1299 23.464C97.4339 22.92 97.5859 22.28 97.5859 21.544C97.5859 20.792 97.4339 20.152 97.1299 19.624C96.8419 19.096 96.4499 18.688 95.9539 18.4C95.4739 18.112 94.9219 17.968 94.2979 17.968C93.6739 17.968 93.1139 18.112 92.6179 18.4C92.1219 18.688 91.7299 19.096 91.4419 19.624C91.1539 20.152 91.0099 20.792 91.0099 21.544C91.0099 22.28 91.1539 22.92 91.4419 23.464C91.7299 23.992 92.1219 24.4 92.6179 24.688C93.1139 24.976 93.6739 25.12 94.2979 25.12ZM109.164 28.192C107.644 28.192 106.46 27.808 105.612 27.04C104.764 26.256 104.34 25.096 104.34 23.56V12.232H108.084V23.512C108.084 24.056 108.228 24.48 108.516 24.784C108.804 25.072 109.196 25.216 109.692 25.216C110.284 25.216 110.788 25.056 111.204 24.736L112.212 27.376C111.828 27.648 111.364 27.856 110.82 28C110.292 28.128 109.74 28.192 109.164 28.192ZM102.348 18.256V15.376H111.3V18.256H102.348ZM120.06 28.192C118.684 28.192 117.46 27.904 116.388 27.328C115.332 26.752 114.492 25.968 113.868 24.976C113.26 23.968 112.956 22.824 112.956 21.544C112.956 20.248 113.26 19.104 113.868 18.112C114.492 17.104 115.332 16.32 116.388 15.76C117.46 15.184 118.684 14.896 120.06 14.896C121.42 14.896 122.636 15.184 123.708 15.76C124.78 16.32 125.62 17.096 126.228 18.088C126.836 19.08 127.14 20.232 127.14 21.544C127.14 22.824 126.836 23.968 126.228 24.976C125.62 25.968 124.78 26.752 123.708 27.328C122.636 27.904 121.42 28.192 120.06 28.192ZM120.06 25.12C120.684 25.12 121.244 24.976 121.74 24.688C122.236 24.4 122.628 23.992 122.916 23.464C123.204 22.92 123.348 22.28 123.348 21.544C123.348 20.792 123.204 20.152 122.916 19.624C122.628 19.096 122.236 18.688 121.74 18.4C121.244 18.112 120.684 17.968 120.06 17.968C119.436 17.968 118.876 18.112 118.38 18.4C117.884 18.688 117.484 19.096 117.18 19.624C116.892 20.152 116.748 20.792 116.748 21.544C116.748 22.28 116.892 22.92 117.18 23.464C117.484 23.992 117.884 24.4 118.38 24.688C118.876 24.976 119.436 25.12 120.06 25.12ZM146.178 14.896C147.202 14.896 148.106 15.104 148.89 15.52C149.69 15.92 150.314 16.544 150.762 17.392C151.226 18.224 151.458 19.296 151.458 20.608V28H147.714V21.184C147.714 20.144 147.498 19.376 147.066 18.88C146.634 18.384 146.026 18.136 145.242 18.136C144.698 18.136 144.21 18.264 143.778 18.52C143.346 18.76 143.01 19.128 142.77 19.624C142.53 20.12 142.41 20.752 142.41 21.52V28H138.666V21.184C138.666 20.144 138.45 19.376 138.018 18.88C137.602 18.384 137.002 18.136 136.218 18.136C135.674 18.136 135.186 18.264 134.754 18.52C134.322 18.76 133.986 19.128 133.746 19.624C133.506 20.12 133.386 20.752 133.386 21.52V28H129.642V15.088H133.218V18.616L132.546 17.584C132.994 16.704 133.626 16.04 134.442 15.592C135.274 15.128 136.218 14.896 137.274 14.896C138.458 14.896 139.49 15.2 140.37 15.808C141.266 16.4 141.858 17.312 142.146 18.544L140.826 18.184C141.258 17.176 141.946 16.376 142.89 15.784C143.85 15.192 144.946 14.896 146.178 14.896ZM154.814 28V15.088H158.558V28H154.814ZM156.686 13.288C155.998 13.288 155.438 13.088 155.006 12.688C154.574 12.288 154.358 11.792 154.358 11.2C154.358 10.608 154.574 10.112 155.006 9.712C155.438 9.312 155.998 9.112 156.686 9.112C157.374 9.112 157.934 9.304 158.366 9.688C158.798 10.056 159.014 10.536 159.014 11.128C159.014 11.752 158.798 12.272 158.366 12.688C157.95 13.088 157.39 13.288 156.686 13.288ZM162.489 28V14.8C162.489 13.344 162.921 12.184 163.785 11.32C164.649 10.44 165.881 10 167.481 10C168.025 10 168.545 10.056 169.041 10.168C169.553 10.28 169.985 10.456 170.337 10.696L169.353 13.408C169.145 13.264 168.913 13.152 168.657 13.072C168.401 12.992 168.129 12.952 167.841 12.952C167.297 12.952 166.873 13.112 166.569 13.432C166.281 13.736 166.137 14.2 166.137 14.824V16.024L166.233 17.632V28H162.489ZM160.497 18.256V15.376H169.449V18.256H160.497ZM173.18 32.848C172.508 32.848 171.844 32.744 171.188 32.536C170.532 32.328 169.996 32.04 169.58 31.672L170.948 29.008C171.236 29.264 171.564 29.464 171.932 29.608C172.316 29.752 172.692 29.824 173.06 29.824C173.588 29.824 174.004 29.696 174.308 29.44C174.628 29.2 174.916 28.792 175.172 28.216L175.844 26.632L176.132 26.224L180.764 15.088H184.364L178.532 28.792C178.116 29.832 177.636 30.648 177.092 31.24C176.564 31.832 175.972 32.248 175.316 32.488C174.676 32.728 173.964 32.848 173.18 32.848ZM175.388 28.504L169.628 15.088H173.492L177.956 25.888L175.388 28.504Z" fill="#616563"/>
<path d="M8.63548 14.0051C8.73165 13.8946 8.84701 13.8057 8.97496 13.7435C9.10291 13.6813 9.24096 13.6469 9.3812 13.6423C9.52145 13.6378 9.66115 13.6631 9.79233 13.7169C9.92351 13.7708 10.0436 13.852 10.1457 13.956C15.0617 18.9623 19.9944 22.0083 25.7991 23.5609C26.5823 21.2511 26.6517 18.709 25.9754 16.2289C25.078 12.9383 22.9882 10.0713 19.9337 7.9384C17.2069 6.03432 14.4815 5.53844 11.8449 5.05917C8.51864 4.45431 5.37662 3.88265 2.37814 0.450532C2.04431 0.0708689 1.58963 -0.0814293 1.15498 0.0419972C0.658243 0.186356 0.325079 0.61077 0.165508 1.31235C-0.208384 2.95443 0.0319751 7.55658 1.08354 12.415C2.77206 20.2204 5.46675 24.1701 7.43035 26.1095C9.96747 28.6134 13.2804 30 16.5727 30C17.1932 30.0011 17.813 29.9518 18.4268 29.8527C21.2116 29.3966 23.5297 27.8844 24.8363 25.6844C18.8614 24.0041 13.7571 20.8087 8.67888 15.6399C8.57655 15.5358 8.49425 15.4108 8.43667 15.2722C8.3791 15.1336 8.34739 14.9841 8.34335 14.8322C8.33932 14.6804 8.36305 14.5291 8.41318 14.3872C8.46331 14.2452 8.53885 14.1154 8.63548 14.0051ZM29.0713 24.2682C27.9476 24.0813 26.8593 23.8467 25.7998 23.563C25.5819 24.206 25.3109 24.8263 24.9899 25.4166C24.9411 25.5068 24.8897 25.5963 24.837 25.6844C26.1257 26.0451 27.4307 26.3342 28.7468 26.5505C28.8869 26.5771 29.0304 26.5733 29.169 26.5391C29.3077 26.505 29.4386 26.4412 29.5542 26.3517C29.6697 26.2621 29.7676 26.1485 29.842 26.0175C29.9164 25.8866 29.9659 25.7408 29.9876 25.5889C30.0092 25.437 30.0026 25.2819 29.9681 25.1328C29.9335 24.9837 29.8718 24.8435 29.7866 24.7205C29.7013 24.5975 29.5942 24.4941 29.4715 24.4165C29.3487 24.3388 29.2129 24.2884 29.072 24.2682H29.0713Z" fill="#15724B"/>
</svg>
