<svg width="23" height="15" viewBox="0 0 23 15" fill="none" xmlns="http://www.w3.org/2000/svg">
<path d="M17.8398 14.6641C17.0977 14.6641 16.4206 14.5534 15.8086 14.332C15.1966 14.0977 14.6758 13.7786 14.2461 13.375C13.8164 12.9583 13.4779 12.457 13.2305 11.8711C12.9961 11.2852 12.8789 10.6341 12.8789 9.91797C12.8789 9.17578 13.0091 8.40104 13.2695 7.59375C13.543 6.78646 13.9336 5.97266 14.4414 5.15234C14.9492 4.33203 15.5612 3.52474 16.2773 2.73047C17.0065 1.92318 17.8333 1.14844 18.7578 0.40625L21.0039 2.16406C20.5742 2.60677 20.1836 3.02995 19.832 3.43359C19.4935 3.83724 19.181 4.24089 18.8945 4.64453C18.6081 5.04818 18.3411 5.46484 18.0938 5.89453C17.8594 6.32422 17.6445 6.77995 17.4492 7.26172L22.7617 9.91797C22.7617 10.6211 22.625 11.2656 22.3516 11.8516C22.0911 12.4375 21.7396 12.9388 21.2969 13.3555C20.8542 13.7721 20.3333 14.0977 19.7344 14.332C19.1354 14.5534 18.5039 14.6641 17.8398 14.6641ZM5.08594 14.6641C4.34375 14.6641 3.66667 14.5534 3.05469 14.332C2.44271 14.0977 1.92188 13.7786 1.49219 13.375C1.0625 12.9583 0.723958 12.457 0.476562 11.8711C0.242188 11.2852 0.125 10.6341 0.125 9.91797C0.125 9.17578 0.255208 8.40104 0.515625 7.59375C0.789062 6.78646 1.17969 5.97266 1.6875 5.15234C2.19531 4.33203 2.80729 3.52474 3.52344 2.73047C4.2526 1.92318 5.07943 1.14844 6.00391 0.40625L8.25 2.16406C7.82031 2.60677 7.42969 3.02995 7.07812 3.43359C6.73958 3.83724 6.42708 4.24089 6.14062 4.64453C5.85417 5.04818 5.58724 5.46484 5.33984 5.89453C5.10547 6.32422 4.89062 6.77995 4.69531 7.26172L10.0078 9.91797C10.0078 10.6211 9.87109 11.2656 9.59766 11.8516C9.33724 12.4375 8.98568 12.9388 8.54297 13.3555C8.10026 13.7721 7.57943 14.0977 6.98047 14.332C6.38151 14.5534 5.75 14.6641 5.08594 14.6641Z" fill="#09492E"/>
</svg>
